<svg width="273" height="57" viewBox="0 0 273 57" fill="none" xmlns="http://www.w3.org/2000/svg">
<rect width="70" height="56" rx="28" fill="#F05224" fill-opacity="0.97"/>
<rect x="103.5" y="0.5" width="69" height="55" rx="27.5" fill="#A7A9AC" stroke="#A7A9AC"/>
<path fill-rule="evenodd" clip-rule="evenodd" d="M143.706 12.6639C143.256 13.1265 142.886 14.5312 142.886 15.7849C142.886 17.4653 143.58 17.965 145.518 17.6834C147.239 17.4329 148.15 16.4753 148.15 14.9195C148.15 12.5416 145.259 11.0746 143.706 12.6639ZM133.822 18.9515C132.686 19.7113 130.019 24.3821 130.019 25.6106C130.019 27.2118 132.73 26.084 134.616 23.6977C138.302 19.0341 138.089 23.1763 134.314 29.6005C131.074 35.1138 130.16 35.8773 126.812 35.8773C124.204 35.8773 123 36.4454 123 37.6751C123 38.9695 124.293 39.4729 127.612 39.4729C131.449 39.4729 132.559 38.8952 134.205 36.0403C135.992 32.9421 136.576 32.6975 140.213 33.5377C144.938 34.6296 144.606 34.3288 146.017 38.7993C147.461 43.3814 150.56 44.7094 149.476 40.2807C147.819 33.5209 146.41 31.0831 144.154 31.0831C142.89 31.0831 141.595 30.6528 141.278 30.1267C140.102 28.1778 142.432 26.8127 146.872 26.8499C149.511 26.8714 151.651 26.2554 151.94 25.39C152.26 24.4336 151.289 23.8918 149.254 23.8918C147.502 23.8918 145.47 23.0529 144.738 22.0281C143.261 19.957 135.561 17.7877 133.822 18.9515Z" fill="white"/>
<path fill-rule="evenodd" clip-rule="evenodd" d="M29.8999 13.0679C21.3121 16.8046 19.2837 28.2101 26.0116 34.9325C35.5749 44.4866 51.2464 35.9291 48.7303 22.526C47.239 14.5867 37.571 9.72928 29.8999 13.0679ZM39.2359 14.9388C41.821 15.9295 40.5561 16.808 37.1939 16.3581C30.4779 15.4575 26.0916 19.3098 26.1308 26.073C26.1512 29.592 27.8953 32.3175 31.2167 34.0251C32.3863 34.6255 32.8859 35.2692 32.3284 35.4546C29.2921 36.4657 24.4181 30.4271 24.413 25.6478C24.4045 18.1601 32.4595 12.3408 39.2359 14.9388ZM36.3265 22.2565C36.3265 25.1444 36.7802 26.2014 38.6673 27.7083C41.7776 30.1924 40.8396 30.9432 37.3684 28.7475C34.8863 27.1777 34.6241 26.613 34.6241 22.8432C34.6241 20.5506 35.0071 18.6746 35.4753 18.6746C35.9435 18.6746 36.3265 20.2869 36.3265 22.2565Z" fill="white"/>
<rect x="203.5" y="1.5" width="69" height="55" rx="27.5" fill="#002266" fill-opacity="0.97" stroke="black"/>
<path fill-rule="evenodd" clip-rule="evenodd" d="M242.814 16.5903C241.877 17.1929 241.631 20.5767 241.836 29.9968L242.111 42.5978H244.556H247V29.4468C247 18.5201 246.752 16.2519 245.533 16.0393C244.727 15.8989 243.502 16.1466 242.814 16.5903ZM234.485 25.1736C234.109 25.55 233.8 29.7647 233.8 34.5391C233.8 42.9849 233.86 43.2121 236 42.9098C238.095 42.6124 238.2 42.1794 238.2 33.835C238.2 26.6978 237.919 25.0176 236.685 24.7806C235.852 24.6207 234.863 24.7972 234.485 25.1736ZM225.652 33.9842C225.293 34.3411 225 36.5645 225 38.9243C225 43.0298 225.116 43.2014 227.689 42.9059C230.044 42.6358 230.417 42.1268 230.69 38.7966C230.885 36.4143 230.521 34.6902 229.712 34.1792C228.144 33.1875 226.528 33.1095 225.652 33.9842Z" fill="white"/>
</svg>
