<svg width="70" height="56" viewBox="0 0 70 56" fill="none" xmlns="http://www.w3.org/2000/svg">
<rect x="0.5" y="0.5" width="69" height="55" rx="27.5" fill="#002266" stroke="black"/>
<path fill-rule="evenodd" clip-rule="evenodd" d="M39.8141 15.5903C38.8774 16.1929 38.631 19.5767 38.8364 28.9968L39.1111 41.5978H41.5556H44V28.4468C44 17.5201 43.7516 15.2519 42.5333 15.0393C41.7267 14.8989 40.5025 15.1466 39.8141 15.5903ZM31.4854 24.1736C31.109 24.55 30.8 28.7647 30.8 33.5391C30.8 41.9849 30.8596 42.2121 33 41.9098C35.0954 41.6124 35.2 41.1794 35.2 32.835C35.2 25.6978 34.9194 24.0176 33.6854 23.7806C32.8524 23.6207 31.8628 23.7972 31.4854 24.1736ZM22.6522 32.9842C22.2933 33.3411 22 35.5645 22 37.9243C22 42.0298 22.1164 42.2014 24.6889 41.9059C27.0444 41.6358 27.4169 41.1268 27.6897 37.7966C27.8852 35.4143 27.5205 33.6902 26.7119 33.1792C25.1436 32.1875 23.5283 32.1095 22.6522 32.9842Z" fill="white"/>
</svg>
