<svg width="70" height="56" viewBox="0 0 70 56" fill="none" xmlns="http://www.w3.org/2000/svg">
<rect width="70" height="56" rx="28" fill="#F05224"/>
<path d="M49.2742 21.5331C48.8087 20.4503 48.1375 19.4692 47.2983 18.6445C46.4583 17.8173 45.4681 17.16 44.3813 16.7082C43.2543 16.2379 42.0456 15.9972 40.8253 16C39.1133 16 37.443 16.471 35.9914 17.3606C35.6442 17.5734 35.3143 17.8072 35.0017 18.0619C34.6892 17.8072 34.3593 17.5734 34.012 17.3606C32.5605 16.471 30.8901 16 29.1781 16C27.9454 16 26.7508 16.2373 25.6222 16.7082C24.5318 17.1618 23.549 17.8142 22.7052 18.6445C21.8648 19.4682 21.1935 20.4496 20.7293 21.5331C20.2466 22.66 20 23.8566 20 25.0881C20 26.2498 20.2361 27.4604 20.7049 28.6919C21.0973 29.7211 21.6599 30.7887 22.3787 31.8667C23.5178 33.5726 25.0839 35.3519 27.0286 37.1555C30.2512 40.1454 33.4425 42.2107 33.5779 42.2944L34.401 42.8247C34.7656 43.0584 35.2344 43.0584 35.599 42.8247L36.422 42.2944C36.5575 42.2072 39.7453 40.1454 42.9714 37.1555C44.916 35.3519 46.4822 33.5726 47.6212 31.8667C48.3401 30.7887 48.9061 29.7211 49.295 28.6919C49.7638 27.4604 50 26.2498 50 25.0881C50.0034 23.8566 49.7569 22.66 49.2742 21.5331Z" fill="white"/>
</svg>
