<svg width="70" height="56" viewBox="0 0 70 56" fill="none" xmlns="http://www.w3.org/2000/svg">
<rect x="0.5" y="0.5" width="69" height="55" rx="27.5" fill="#A7A9AC" stroke="#A7A9AC"/>
<path fill-rule="evenodd" clip-rule="evenodd" d="M40.7062 12.6639C40.2559 13.1265 39.8862 14.5312 39.8862 15.7849C39.8862 17.4653 40.5799 17.965 42.5182 17.6834C44.239 17.4329 45.1502 16.4753 45.1502 14.9195C45.1502 12.5416 42.2585 11.0746 40.7062 12.6639ZM30.8216 18.9515C29.6858 19.7113 27.0187 24.3821 27.0187 25.6106C27.0187 27.2118 29.7302 26.084 31.6159 23.6977C35.3019 19.0341 35.089 23.1763 31.3141 29.6005C28.0738 35.1138 27.1602 35.8773 23.8123 35.8773C21.2037 35.8773 20 36.4454 20 37.6751C20 38.9695 21.2926 39.4729 24.6124 39.4729C28.4493 39.4729 29.5594 38.8952 31.2053 36.0403C32.9915 32.9421 33.5764 32.6975 37.2133 33.5377C41.938 34.6296 41.6058 34.3288 43.0165 38.7993C44.4612 43.3814 47.5599 44.7094 46.4756 40.2807C44.8192 33.5209 43.4096 31.0831 41.1542 31.0831C39.8897 31.0831 38.5948 30.6528 38.2778 30.1267C37.1021 28.1778 39.4323 26.8127 43.8716 26.8499C46.5107 26.8714 48.6513 26.2554 48.9403 25.39C49.2596 24.4336 48.2887 23.8918 46.2545 23.8918C44.5021 23.8918 42.4702 23.0529 41.738 22.0281C40.2605 19.957 32.5611 17.7877 30.8216 18.9515Z" fill="white"/>
</svg>
