<svg width="70" height="56" viewBox="0 0 70 56" fill="none" xmlns="http://www.w3.org/2000/svg">
<rect width="70" height="56" rx="28" fill="#F05224"/>
<path fill-rule="evenodd" clip-rule="evenodd" d="M29.8999 15.0679C21.3121 18.8046 19.2837 30.2101 26.0116 36.9325C35.5749 46.4866 51.2464 37.9291 48.7303 24.526C47.239 16.5867 37.571 11.7293 29.8999 15.0679ZM39.2359 16.9388C41.821 17.9295 40.5561 18.808 37.1939 18.3581C30.4779 17.4575 26.0916 21.3098 26.1308 28.073C26.1512 31.592 27.8953 34.3175 31.2167 36.0251C32.3863 36.6255 32.8859 37.2692 32.3284 37.4546C29.2921 38.4657 24.4181 32.4271 24.413 27.6478C24.4045 20.1601 32.4595 14.3408 39.2359 16.9388ZM36.3265 24.2565C36.3265 27.1444 36.7802 28.2014 38.6673 29.7083C41.7776 32.1924 40.8396 32.9432 37.3684 30.7475C34.8863 29.1777 34.6241 28.613 34.6241 24.8432C34.6241 22.5506 35.0071 20.6746 35.4753 20.6746C35.9435 20.6746 36.3265 22.2869 36.3265 24.2565Z" fill="white"/>
</svg>
